<?xml version="1.0" encoding="UTF-8" standalone="no"?>
<!DOCTYPE svg PUBLIC "-//W3C//DTD SVG 1.1//EN"
 "http://www.w3.org/Graphics/SVG/1.1/DTD/svg11.dtd">
<!-- Generated by graphviz version 2.38.0 (20140413.2041)
 -->
<!-- Title: G Pages: 1 -->
<svg width="406pt" height="258pt"
 viewBox="0.00 0.00 406.38 258.00" xmlns="http://www.w3.org/2000/svg" xmlns:xlink="http://www.w3.org/1999/xlink">
<g id="graph0" class="graph" transform="scale(1 1) rotate(0) translate(4 254)">
<title>G</title>
<polygon fill="white" stroke="none" points="-4,4 -4,-254 402.383,-254 402.383,4 -4,4"/>
<g id="clust1" class="cluster"><title>cluster_Global</title>
<path fill="none" stroke="gray" d="M268.383,-8C268.383,-8 378.383,-8 378.383,-8 384.383,-8 390.383,-14 390.383,-20 390.383,-20 390.383,-230 390.383,-230 390.383,-236 384.383,-242 378.383,-242 378.383,-242 268.383,-242 268.383,-242 262.383,-242 256.383,-236 256.383,-230 256.383,-230 256.383,-20 256.383,-20 256.383,-14 262.383,-8 268.383,-8"/>
<text text-anchor="middle" x="323.383" y="-229.2" font-family="Times,serif" font-size="11.00" fill="gray">Global</text>
</g>
<!-- \\DarwinTpl -->
<g id="node1" class="node"><title>\\DarwinTpl</title>
<polygon fill="none" stroke="black" points="361.883,-214 284.883,-214 284.883,-178 361.883,-178 361.883,-214"/>
<text text-anchor="middle" x="323.383" y="-193.2" font-family="Courier,monospace" font-size="11.00">DarwinTpl</text>
</g>
<!-- \\Asset -->
<g id="node2" class="node"><title>\\Asset</title>
<polygon fill="none" stroke="black" points="350.383,-160 296.383,-160 296.383,-124 350.383,-124 350.383,-160"/>
<text text-anchor="middle" x="323.383" y="-139.2" font-family="Courier,monospace" font-size="11.00">Asset</text>
</g>
<!-- \\Darwin\\PluginInterface -->
<g id="node5" class="node"><title>\\Darwin\\PluginInterface</title>
<ellipse fill="none" stroke="black" cx="96.1915" cy="-142" rx="96.3833" ry="18"/>
<text text-anchor="middle" x="96.1915" y="-138.3" font-family="Times,serif" font-size="14.00" fill="gray">\Darwin\PluginInterface</text>
</g>
<!-- \\Asset&#45;&gt;\\Darwin\\PluginInterface -->
<g id="edge1" class="edge"><title>\\Asset&#45;&gt;\\Darwin\\PluginInterface</title>
<path fill="none" stroke="black" stroke-dasharray="1,5" d="M296.11,-142C272.878,-142 237.394,-142 202.794,-142"/>
<polygon fill="none" stroke="black" points="202.586,-138.5 192.586,-142 202.586,-145.5 202.586,-138.5"/>
</g>
<!-- \\Partials -->
<g id="node3" class="node"><title>\\Partials</title>
<polygon fill="none" stroke="black" points="358.883,-106 287.883,-106 287.883,-70 358.883,-70 358.883,-106"/>
<text text-anchor="middle" x="323.383" y="-85.2" font-family="Courier,monospace" font-size="11.00">Partials</text>
</g>
<!-- \\PluginInterface -->
<g id="node4" class="node"><title>\\PluginInterface</title>
<polygon fill="none" stroke="black" points="382.383,-52 264.383,-52 264.383,-16 382.383,-16 382.383,-52"/>
<text text-anchor="middle" x="323.383" y="-31.2" font-family="Courier,monospace" font-size="11.00">PluginInterface</text>
</g>
</g>
</svg>
