<?xml version="1.0" encoding="UTF-8" standalone="no"?>
<!DOCTYPE svg PUBLIC "-//W3C//DTD SVG 1.1//EN"
 "http://www.w3.org/Graphics/SVG/1.1/DTD/svg11.dtd">
<!-- Generated by graphviz version 2.38.0 (20140413.2041)
 -->
<!-- Title: G Pages: 1 -->
<svg width="323pt" height="268pt"
 viewBox="0.00 0.00 323.00 268.00" xmlns="http://www.w3.org/2000/svg" xmlns:xlink="http://www.w3.org/1999/xlink">
<g id="graph0" class="graph" transform="scale(1 1) rotate(0) translate(4 264)">
<title>G</title>
<polygon fill="white" stroke="none" points="-4,4 -4,-264 319,-264 319,4 -4,4"/>
<g id="clust1" class="cluster"><title>cluster_Global</title>
<path fill="none" stroke="gray" d="M20,-8C20,-8 295,-8 295,-8 301,-8 307,-14 307,-20 307,-20 307,-240 307,-240 307,-246 301,-252 295,-252 295,-252 20,-252 20,-252 14,-252 8,-246 8,-240 8,-240 8,-20 8,-20 8,-14 14,-8 20,-8"/>
<text text-anchor="middle" x="157.5" y="-239.2" font-family="Times,serif" font-size="11.00" fill="gray">Global</text>
</g>
<g id="clust2" class="cluster"><title>cluster_\Darwin</title>
<path fill="none" stroke="gray" d="M28,-16C28,-16 287,-16 287,-16 293,-16 299,-22 299,-28 299,-28 299,-212 299,-212 299,-218 293,-224 287,-224 287,-224 28,-224 28,-224 22,-224 16,-218 16,-212 16,-212 16,-28 16,-28 16,-22 22,-16 28,-16"/>
<text text-anchor="middle" x="157.5" y="-211.2" font-family="Times,serif" font-size="11.00" fill="gray">Darwin</text>
</g>
<g id="clust3" class="cluster"><title>cluster_\Darwin\Plugins</title>
<path fill="none" stroke="gray" d="M229.5,-124C229.5,-124 275.5,-124 275.5,-124 281.5,-124 287.5,-130 287.5,-136 287.5,-136 287.5,-184 287.5,-184 287.5,-190 281.5,-196 275.5,-196 275.5,-196 229.5,-196 229.5,-196 223.5,-196 217.5,-190 217.5,-184 217.5,-184 217.5,-136 217.5,-136 217.5,-130 223.5,-124 229.5,-124"/>
<text text-anchor="middle" x="252.5" y="-183.2" font-family="Times,serif" font-size="11.00" fill="gray">Plugins</text>
</g>
<!-- \\Darwin\\Plugins\\Asset -->
<g id="node1" class="node"><title>\\Darwin\\Plugins\\Asset</title>
<polygon fill="none" stroke="black" points="279.5,-168 225.5,-168 225.5,-132 279.5,-132 279.5,-168"/>
<text text-anchor="middle" x="252.5" y="-147.2" font-family="Courier,monospace" font-size="11.00">Asset</text>
</g>
<!-- \\Darwin\\PluginInterface -->
<g id="node4" class="node"><title>\\Darwin\\PluginInterface</title>
<polygon fill="none" stroke="black" points="142,-168 24,-168 24,-132 142,-132 142,-168"/>
<text text-anchor="middle" x="83" y="-147.2" font-family="Courier,monospace" font-size="11.00">PluginInterface</text>
</g>
<!-- \\Darwin\\Plugins\\Asset&#45;&gt;\\Darwin\\PluginInterface -->
<g id="edge1" class="edge"><title>\\Darwin\\Plugins\\Asset&#45;&gt;\\Darwin\\PluginInterface</title>
<path fill="none" stroke="black" stroke-dasharray="1,5" d="M225.328,-150C205.752,-150 178.042,-150 152.337,-150"/>
<polygon fill="none" stroke="black" points="152.231,-146.5 142.231,-150 152.231,-153.5 152.231,-146.5"/>
</g>
<!-- \\Darwin\\Partials -->
<g id="node2" class="node"><title>\\Darwin\\Partials</title>
<polygon fill="none" stroke="black" points="288,-114 217,-114 217,-78 288,-78 288,-114"/>
<text text-anchor="middle" x="252.5" y="-93.2" font-family="Courier,monospace" font-size="11.00">Partials</text>
</g>
<!-- \\Darwin\\DarwinTpl -->
<g id="node3" class="node"><title>\\Darwin\\DarwinTpl</title>
<polygon fill="none" stroke="black" points="291,-60 214,-60 214,-24 291,-24 291,-60"/>
<text text-anchor="middle" x="252.5" y="-39.2" font-family="Courier,monospace" font-size="11.00">DarwinTpl</text>
</g>
</g>
</svg>
