<?xml version="1.0" encoding="UTF-8" standalone="no"?>
<!DOCTYPE svg PUBLIC "-//W3C//DTD SVG 1.1//EN"
 "http://www.w3.org/Graphics/SVG/1.1/DTD/svg11.dtd">
<!-- Generated by graphviz version 2.38.0 (20140413.2041)
 -->
<!-- Title: G Pages: 1 -->
<svg width="323pt" height="214pt"
 viewBox="0.00 0.00 323.00 214.00" xmlns="http://www.w3.org/2000/svg" xmlns:xlink="http://www.w3.org/1999/xlink">
<g id="graph0" class="graph" transform="scale(1 1) rotate(0) translate(4 210)">
<title>G</title>
<polygon fill="white" stroke="none" points="-4,4 -4,-210 319,-210 319,4 -4,4"/>
<g id="clust1" class="cluster"><title>cluster_Global</title>
<path fill="none" stroke="gray" d="M20,-8C20,-8 295,-8 295,-8 301,-8 307,-14 307,-20 307,-20 307,-186 307,-186 307,-192 301,-198 295,-198 295,-198 20,-198 20,-198 14,-198 8,-192 8,-186 8,-186 8,-20 8,-20 8,-14 14,-8 20,-8"/>
<text text-anchor="middle" x="157.5" y="-185.2" font-family="Times,serif" font-size="11.00" fill="gray">Global</text>
</g>
<g id="clust2" class="cluster"><title>cluster_\src</title>
<path fill="none" stroke="gray" d="M28,-16C28,-16 287,-16 287,-16 293,-16 299,-22 299,-28 299,-28 299,-158 299,-158 299,-164 293,-170 287,-170 287,-170 28,-170 28,-170 22,-170 16,-164 16,-158 16,-158 16,-28 16,-28 16,-22 22,-16 28,-16"/>
<text text-anchor="middle" x="157.5" y="-157.2" font-family="Times,serif" font-size="11.00" fill="gray">src</text>
</g>
<g id="clust3" class="cluster"><title>cluster_\src\plugins</title>
<path fill="none" stroke="gray" d="M229.5,-70C229.5,-70 275.5,-70 275.5,-70 281.5,-70 287.5,-76 287.5,-82 287.5,-82 287.5,-130 287.5,-130 287.5,-136 281.5,-142 275.5,-142 275.5,-142 229.5,-142 229.5,-142 223.5,-142 217.5,-136 217.5,-130 217.5,-130 217.5,-82 217.5,-82 217.5,-76 223.5,-70 229.5,-70"/>
<text text-anchor="middle" x="252.5" y="-129.2" font-family="Times,serif" font-size="11.00" fill="gray">plugins</text>
</g>
<!-- \\src\\plugins\\Asset -->
<g id="node1" class="node"><title>\\src\\plugins\\Asset</title>
<polygon fill="none" stroke="black" points="279.5,-114 225.5,-114 225.5,-78 279.5,-78 279.5,-114"/>
<text text-anchor="middle" x="252.5" y="-93.2" font-family="Courier,monospace" font-size="11.00">Asset</text>
</g>
<!-- \\src\\PluginInterface -->
<g id="node3" class="node"><title>\\src\\PluginInterface</title>
<polygon fill="none" stroke="black" points="142,-114 24,-114 24,-78 142,-78 142,-114"/>
<text text-anchor="middle" x="83" y="-93.2" font-family="Courier,monospace" font-size="11.00">PluginInterface</text>
</g>
<!-- \\src\\plugins\\Asset&#45;&gt;\\src\\PluginInterface -->
<g id="edge1" class="edge"><title>\\src\\plugins\\Asset&#45;&gt;\\src\\PluginInterface</title>
<path fill="none" stroke="black" stroke-dasharray="1,5" d="M225.328,-96C205.752,-96 178.042,-96 152.337,-96"/>
<polygon fill="none" stroke="black" points="152.231,-92.5001 142.231,-96 152.231,-99.5001 152.231,-92.5001"/>
</g>
<!-- \\src\\DarwinTpl -->
<g id="node2" class="node"><title>\\src\\DarwinTpl</title>
<polygon fill="none" stroke="black" points="291,-60 214,-60 214,-24 291,-24 291,-60"/>
<text text-anchor="middle" x="252.5" y="-39.2" font-family="Courier,monospace" font-size="11.00">DarwinTpl</text>
</g>
</g>
</svg>
